<svg xmlns="http://www.w3.org/2000/svg" width="190.223" height="182.97" viewBox="0 0 190.223 182.97">
  <g id="Group_16" data-name="Group 16" transform="translate(63.346) rotate(30)">
    <g id="Group_12" data-name="Group 12" transform="translate(0 0)">
      <g id="Group_11" data-name="Group 11">
        <g id="Polygon_1" data-name="Polygon 1" fill="none">
          <path d="M109.879,0l36.626,63.346-36.626,63.346H36.626L0,63.346,36.626,0Z" stroke="none"/>
          <path d="M 38.35712432861328 3.000007629394531 L 3.465362548828125 63.34558868408203 L 38.35712432861328 123.6911697387695 L 108.1482772827148 123.6911697387695 L 143.0400390625 63.34558868408203 L 108.1482772827148 3.000007629394531 L 38.35712432861328 3.000007629394531 M 36.62635040283203 7.62939453125e-06 L 109.8790588378906 7.62939453125e-06 L 146.5054016113281 63.34558868408203 L 109.8790588378906 126.6911697387695 L 36.62635040283203 126.6911697387695 L 0 63.34558868408203 L 36.62635040283203 7.62939453125e-06 Z" stroke="none" fill="#a600eb"/>
        </g>
        <g id="Polygon_2" data-name="Polygon 2" transform="translate(28.22 24.017)" fill="none">
          <path d="M67.549,0,90.065,39.328,67.549,78.657H22.516L0,39.328,22.516,0Z" stroke="none"/>
          <path d="M 24.25551605224609 3 L 3.456871032714844 39.32829666137695 L 24.25551605224609 75.65659332275391 L 65.80928039550781 75.65659332275391 L 86.60792541503906 39.32829666137695 L 65.80928039550781 3 L 24.25551605224609 3 M 22.51619720458984 0 L 67.54859924316406 0 L 90.06479644775391 39.32829666137695 L 67.54859924316406 78.65659332275391 L 22.51619720458984 78.65659332275391 L 0 39.32829666137695 L 22.51619720458984 0 Z" stroke="none" fill="#a600eb"/>
        </g>
        <line id="Line_2" data-name="Line 2" x1="99.863" y2="0.218" transform="translate(23.076 24.355)" fill="none" stroke="#a600eb" stroke-width="3"/>
        <line id="Line_3" data-name="Line 3" x1="100.463" y1="0.218" transform="translate(22.421 101.846)" fill="none" stroke="#a600eb" stroke-width="3"/>
      </g>
    </g>
  </g>
</svg>
